<svg xmlns="http://www.w3.org/2000/svg" width="72" height="44" viewBox="0 0 72 44"><defs><filter id="j5j4a" width="94" height="66" x="-11" y="-11" filterUnits="userSpaceOnUse"><feOffset in="SourceGraphic" result="FeOffset1029Out"/><feGaussianBlur in="FeOffset1029Out" result="FeGaussianBlur1030Out" stdDeviation="2 2"/></filter></defs><g><g><g filter="url(#j5j4a)"><path fill="none" d="M35.999 40a4.496 4.496 0 0 1-3.165-1.293L5.316 11.55a4.379 4.379 0 0 1 0-6.258 4.532 4.532 0 0 1 6.337 0L36 29.322l24.35-24.026a4.524 4.524 0 0 1 6.339 0 4.382 4.382 0 0 1 0 6.254l-27.52 27.157A4.484 4.484 0 0 1 35.998 40"/></g><path fill="#fefefe" d="M35.999 40a4.496 4.496 0 0 1-3.165-1.293L5.316 11.55a4.379 4.379 0 0 1 0-6.258 4.532 4.532 0 0 1 6.337 0L36 29.322l24.35-24.026a4.524 4.524 0 0 1 6.339 0 4.382 4.382 0 0 1 0 6.254l-27.52 27.157A4.484 4.484 0 0 1 35.998 40"/></g></g></svg>