<svg xmlns="http://www.w3.org/2000/svg" width="1920" height="174" viewBox="0 0 1920 174"><g><g><path fill="#072e3a" d="M.07 173.997V54.872H0V.41c43.636 0 66.767 17.447 85.353 31.466 15.603 11.768 26.876 20.272 51.833 20.272 24.956 0 36.23-8.504 51.833-20.272C207.604 17.857 230.734.41 274.37.41c43.635 0 66.766 17.447 85.352 31.466 15.603 11.768 26.877 20.272 51.833 20.272 24.958 0 36.231-8.504 51.835-20.272C481.975 17.857 505.107.41 548.744.41c43.636 0 66.767 17.447 85.352 31.466 15.603 11.768 26.876 20.272 51.833 20.272 24.958 0 36.233-8.504 51.837-20.273C756.353 17.857 779.484.41 823.122.41c43.637 0 66.77 17.447 85.355 31.465C924.015 43.595 935.26 52.076 960 52.147c24.74-.07 35.986-8.552 51.524-20.272C1030.109 17.857 1053.24.41 1096.878.41c43.639 0 66.77 17.447 85.356 31.465 15.605 11.77 26.879 20.273 51.838 20.273 24.957 0 36.23-8.504 51.832-20.272C1304.49 17.857 1327.621.41 1371.257.41c43.636 0 66.768 17.447 85.354 31.466 15.603 11.768 26.876 20.272 51.834 20.272 24.957 0 36.23-8.504 51.834-20.272C1578.864 17.857 1601.995.41 1645.63.41c43.637 0 66.766 17.447 85.352 31.466 15.603 11.768 26.877 20.272 51.832 20.272 24.957 0 36.23-8.504 51.834-20.272C1853.233 17.857 1876.364.41 1920 .41v54.462h-.07v119.125z"/></g></g></svg>